<svg width="460" height="112" viewBox="0 0 460 112" fill="none" xmlns="http://www.w3.org/2000/svg">
<path d="M29.896 4.16C31.368 4.16 32.584 4.112 33.544 4.016V4.976C32.744 5.264 31.96 5.872 31.192 6.8C30.424 7.728 29.736 9.024 29.128 10.688L19 38.096C18.648 38.064 18.088 38.048 17.32 38.048C16.584 38.048 16.04 38.064 15.688 38.096L3.448 8.048C3.032 6.992 2.552 6.224 2.008 5.744C1.464 5.264 0.936 5.008 0.424 4.976V4.016C2.344 4.112 4.776 4.16 7.72 4.16C11.016 4.16 13.448 4.112 15.016 4.016V4.976C13.8 5.04 12.936 5.184 12.424 5.408C11.912 5.632 11.656 6.08 11.656 6.752C11.656 7.296 11.848 8.048 12.232 9.008L20.68 30.512L26.584 14.576C27.48 12.112 27.928 10.16 27.928 8.72C27.928 7.44 27.576 6.512 26.872 5.936C26.2 5.36 25.208 5.04 23.896 4.976V4.016C26.072 4.112 28.072 4.16 29.896 4.16ZM39.0483 0.799998C40.3923 0.799998 41.4483 1.136 42.2163 1.808C43.0163 2.448 43.4163 3.344 43.4163 4.496C43.4163 5.648 43.0163 6.56 42.2163 7.232C41.4483 7.872 40.3923 8.192 39.0483 8.192C37.7043 8.192 36.6323 7.872 35.8323 7.232C35.0643 6.56 34.6803 5.648 34.6803 4.496C34.6803 3.344 35.0643 2.448 35.8323 1.808C36.6323 1.136 37.7043 0.799998 39.0483 0.799998ZM42.7923 33.536C42.7923 34.848 43.0163 35.76 43.4643 36.272C43.9443 36.752 44.7443 36.992 45.8643 36.992V38C42.6643 37.872 40.5363 37.808 39.4803 37.808C38.4883 37.808 36.2642 37.872 32.8083 38V36.992C33.9603 36.992 34.7603 36.752 35.2083 36.272C35.6563 35.76 35.8803 34.848 35.8803 33.536V18.416C35.8803 16.944 35.6563 15.872 35.2083 15.2C34.7603 14.528 33.9603 14.192 32.8083 14.192V13.184C33.8323 13.28 34.8243 13.328 35.7843 13.328C38.6323 13.328 40.9683 13.104 42.7923 12.656V33.536ZM57.4529 12.512C58.6689 12.512 59.7889 12.672 60.8129 12.992C61.8369 13.28 62.6209 13.616 63.1649 14C63.4849 14.224 63.7729 14.336 64.0289 14.336C64.3169 14.336 64.5569 14.192 64.7489 13.904C64.9729 13.584 65.1169 13.136 65.1809 12.56H66.1889C66.0609 14.192 65.9969 17.008 65.9969 21.008H64.9889C64.7009 18.896 64.0609 17.136 63.0689 15.728C62.1089 14.288 60.7009 13.568 58.8449 13.568C57.8849 13.568 57.0849 13.84 56.4449 14.384C55.8369 14.928 55.5329 15.68 55.5329 16.64C55.5329 17.728 55.9009 18.672 56.6369 19.472C57.3729 20.24 58.5249 21.184 60.0929 22.304L61.4849 23.312C63.4369 24.784 64.8769 26.096 65.8049 27.248C66.7329 28.4 67.1969 29.84 67.1969 31.568C67.1969 32.976 66.7809 34.224 65.9489 35.312C65.1489 36.4 64.0609 37.232 62.6849 37.808C61.3089 38.384 59.7889 38.672 58.1249 38.672C56.3649 38.672 54.8609 38.336 53.6129 37.664C52.5889 37.152 51.8529 36.816 51.4049 36.656C51.0849 36.56 50.7969 36.672 50.5409 36.992C50.3169 37.28 50.1409 37.728 50.0129 38.336H49.0049C49.1329 36.512 49.1969 33.312 49.1969 28.736H50.2049C50.8449 34.624 53.0049 37.568 56.6849 37.568C57.6129 37.568 58.3969 37.296 59.0369 36.752C59.7089 36.176 60.0449 35.312 60.0449 34.16C60.0449 33.264 59.8369 32.464 59.4209 31.76C59.0369 31.056 58.5409 30.432 57.9329 29.888C57.3249 29.344 56.4129 28.592 55.1969 27.632C53.7569 26.48 52.6529 25.552 51.8849 24.848C51.1489 24.144 50.5089 23.312 49.9649 22.352C49.4529 21.392 49.1969 20.32 49.1969 19.136C49.1969 17.088 49.9969 15.472 51.5969 14.288C53.1969 13.104 55.1489 12.512 57.4529 12.512ZM76.3608 0.799998C77.7048 0.799998 78.7608 1.136 79.5288 1.808C80.3288 2.448 80.7288 3.344 80.7288 4.496C80.7288 5.648 80.3288 6.56 79.5288 7.232C78.7608 7.872 77.7048 8.192 76.3608 8.192C75.0168 8.192 73.9448 7.872 73.1448 7.232C72.3768 6.56 71.9928 5.648 71.9928 4.496C71.9928 3.344 72.3768 2.448 73.1448 1.808C73.9448 1.136 75.0168 0.799998 76.3608 0.799998ZM80.1048 33.536C80.1048 34.848 80.3288 35.76 80.7768 36.272C81.2568 36.752 82.0568 36.992 83.1768 36.992V38C79.9768 37.872 77.8488 37.808 76.7928 37.808C75.8008 37.808 73.5767 37.872 70.1208 38V36.992C71.2728 36.992 72.0728 36.752 72.5208 36.272C72.9688 35.76 73.1928 34.848 73.1928 33.536V18.416C73.1928 16.944 72.9688 15.872 72.5208 15.2C72.0728 14.528 71.2728 14.192 70.1208 14.192V13.184C71.1448 13.28 72.1368 13.328 73.0968 13.328C75.9448 13.328 78.2808 13.104 80.1048 12.656V33.536ZM95.0054 13.184H100.669V14.144H95.0054V33.536C95.0054 34.496 95.1654 35.184 95.4854 35.6C95.8374 35.984 96.3814 36.176 97.1174 36.176C98.4934 36.176 99.5814 35.216 100.381 33.296L101.197 33.728C99.9814 37.024 97.7894 38.672 94.6214 38.672C92.5094 38.672 90.9094 38.128 89.8214 37.04C89.1494 36.368 88.6854 35.536 88.4294 34.544C88.2054 33.52 88.0934 32.128 88.0934 30.368V14.144H84.0614V13.184H88.0934V6.848C90.7494 6.848 93.0534 6.336 95.0054 5.312V13.184ZM122.193 13.184H127.857V14.144H122.193V33.536C122.193 34.496 122.353 35.184 122.673 35.6C123.025 35.984 123.569 36.176 124.305 36.176C125.681 36.176 126.769 35.216 127.569 33.296L128.385 33.728C127.169 37.024 124.977 38.672 121.809 38.672C119.697 38.672 118.097 38.128 117.009 37.04C116.337 36.368 115.873 35.536 115.617 34.544C115.393 33.52 115.281 32.128 115.281 30.368V14.144H111.249V13.184H115.281V6.848C117.937 6.848 120.241 6.336 122.193 5.312V13.184ZM139.068 16.976C140.508 14 143.116 12.512 146.892 12.512C149.388 12.512 151.148 13.136 152.172 14.384C152.716 14.992 153.1 15.792 153.324 16.784C153.58 17.744 153.708 19.024 153.708 20.624V33.536C153.708 34.848 153.932 35.76 154.38 36.272C154.828 36.752 155.628 36.992 156.78 36.992V38C153.452 37.872 151.34 37.808 150.444 37.808C149.356 37.808 147.276 37.872 144.204 38V36.992C145.164 36.992 145.836 36.752 146.22 36.272C146.604 35.76 146.796 34.848 146.796 33.536V18.608C146.796 17.296 146.572 16.304 146.124 15.632C145.708 14.96 144.94 14.624 143.82 14.624C142.476 14.624 141.34 15.152 140.412 16.208C139.516 17.232 139.068 18.544 139.068 20.144V33.536C139.068 34.848 139.26 35.76 139.644 36.272C140.028 36.752 140.7 36.992 141.66 36.992V38C138.588 37.872 136.604 37.808 135.708 37.808C134.62 37.808 132.412 37.872 129.084 38V36.992C130.204 36.992 130.988 36.752 131.436 36.272C131.916 35.76 132.156 34.848 132.156 33.536V6.224C132.156 4.752 131.916 3.68 131.436 3.008C130.988 2.336 130.204 2 129.084 2V0.991999C130.108 1.088 131.1 1.136 132.06 1.136C134.844 1.136 137.18 0.911999 139.068 0.463997V16.976ZM172.639 34.736C175.263 34.736 177.375 33.456 178.975 30.896L179.839 31.184C179.199 33.264 178.047 35.04 176.383 36.512C174.751 37.952 172.703 38.672 170.239 38.672C166.847 38.672 164.143 37.6 162.127 35.456C160.143 33.28 159.151 30.08 159.151 25.856C159.151 21.536 160.223 18.24 162.367 15.968C164.511 13.664 167.359 12.512 170.911 12.512C176.927 12.512 179.935 16.064 179.935 23.168H166.447C166.415 23.648 166.399 24.4 166.399 25.424C166.399 27.536 166.687 29.296 167.263 30.704C167.871 32.112 168.639 33.136 169.567 33.776C170.527 34.416 171.551 34.736 172.639 34.736ZM170.623 13.52C169.471 13.52 168.511 14.24 167.743 15.68C167.007 17.088 166.543 19.28 166.351 22.256H173.887C173.951 19.728 173.695 17.648 173.119 16.016C172.575 14.352 171.743 13.52 170.623 13.52ZM203.099 13.184H208.763V14.144H203.099V33.536C203.099 34.496 203.259 35.184 203.579 35.6C203.931 35.984 204.475 36.176 205.211 36.176C206.587 36.176 207.675 35.216 208.475 33.296L209.291 33.728C208.075 37.024 205.883 38.672 202.715 38.672C200.603 38.672 199.003 38.128 197.915 37.04C197.243 36.368 196.779 35.536 196.523 34.544C196.299 33.52 196.187 32.128 196.187 30.368V14.144H192.155V13.184H196.187V6.848C198.843 6.848 201.147 6.336 203.099 5.312V13.184ZM222.427 12.512C226.107 12.512 228.987 13.568 231.067 15.68C233.147 17.76 234.187 21.072 234.187 25.616C234.187 30.16 233.147 33.472 231.067 35.552C228.987 37.632 226.107 38.672 222.427 38.672C218.779 38.672 215.899 37.632 213.787 35.552C211.707 33.472 210.667 30.16 210.667 25.616C210.667 21.072 211.707 17.76 213.787 15.68C215.899 13.568 218.779 12.512 222.427 12.512ZM222.427 13.472C221.051 13.472 219.947 14.48 219.115 16.496C218.315 18.48 217.915 21.52 217.915 25.616C217.915 29.712 218.315 32.752 219.115 34.736C219.947 36.72 221.051 37.712 222.427 37.712C223.835 37.712 224.939 36.736 225.739 34.784C226.539 32.8 226.939 29.744 226.939 25.616C226.939 21.488 226.523 18.432 225.691 16.448C224.891 14.464 223.803 13.472 222.427 13.472ZM261.087 32.768C261.087 34.24 261.311 35.312 261.759 35.984C262.239 36.656 263.039 36.992 264.159 36.992V38C263.167 37.904 262.175 37.856 261.183 37.856C258.399 37.856 256.063 38.08 254.175 38.528V34.208C252.703 37.184 250.127 38.672 246.447 38.672C244.047 38.672 242.303 38.048 241.215 36.8C240.703 36.192 240.319 35.408 240.063 34.448C239.839 33.456 239.727 32.16 239.727 30.56V18.416C239.727 16.944 239.487 15.872 239.007 15.2C238.559 14.528 237.775 14.192 236.655 14.192V13.184C237.647 13.28 238.639 13.328 239.631 13.328C242.415 13.328 244.751 13.104 246.639 12.656V32.528C246.639 33.872 246.831 34.88 247.215 35.552C247.631 36.224 248.399 36.56 249.519 36.56C250.799 36.56 251.887 36.032 252.783 34.976C253.711 33.888 254.175 32.56 254.175 30.992V18.416C254.175 16.944 253.935 15.872 253.455 15.2C253.007 14.528 252.223 14.192 251.103 14.192V13.184C252.127 13.28 253.119 13.328 254.079 13.328C256.863 13.328 259.199 13.104 261.087 12.656V32.768ZM282.805 12.512C284.245 12.512 285.333 12.944 286.069 13.808C286.805 14.672 287.173 15.712 287.173 16.928C287.173 18.112 286.821 19.088 286.117 19.856C285.445 20.592 284.549 20.96 283.429 20.96C282.341 20.96 281.477 20.688 280.837 20.144C280.197 19.568 279.877 18.816 279.877 17.888C279.877 16.352 280.581 15.104 281.989 14.144C281.861 14.112 281.669 14.096 281.413 14.096C281.093 14.096 280.837 14.128 280.645 14.192C279.429 14.384 278.389 15.12 277.525 16.4C276.693 17.68 276.277 18.992 276.277 20.336V33.056C276.277 34.528 276.629 35.552 277.333 36.128C278.069 36.704 279.221 36.992 280.789 36.992V38C280.341 38 279.973 37.984 279.685 37.952C276.421 37.856 274.245 37.808 273.157 37.808C272.293 37.808 270.325 37.856 267.253 37.952C266.997 37.984 266.677 38 266.293 38V36.992C267.445 36.992 268.245 36.752 268.693 36.272C269.141 35.76 269.365 34.848 269.365 33.536V18.416C269.365 16.944 269.141 15.872 268.693 15.2C268.245 14.528 267.445 14.192 266.293 14.192V13.184C267.317 13.28 268.309 13.328 269.269 13.328C272.117 13.328 274.453 13.104 276.277 12.656V17.12C276.885 15.744 277.765 14.64 278.917 13.808C280.069 12.944 281.365 12.512 282.805 12.512ZM294.939 0.799998C296.283 0.799998 297.339 1.136 298.107 1.808C298.907 2.448 299.307 3.344 299.307 4.496C299.307 5.648 298.907 6.56 298.107 7.232C297.339 7.872 296.283 8.192 294.939 8.192C293.595 8.192 292.523 7.872 291.723 7.232C290.955 6.56 290.571 5.648 290.571 4.496C290.571 3.344 290.955 2.448 291.723 1.808C292.523 1.136 293.595 0.799998 294.939 0.799998ZM298.683 33.536C298.683 34.848 298.907 35.76 299.355 36.272C299.835 36.752 300.635 36.992 301.755 36.992V38C298.555 37.872 296.427 37.808 295.371 37.808C294.379 37.808 292.155 37.872 288.699 38V36.992C289.851 36.992 290.651 36.752 291.099 36.272C291.547 35.76 291.771 34.848 291.771 33.536V18.416C291.771 16.944 291.547 15.872 291.099 15.2C290.651 14.528 289.851 14.192 288.699 14.192V13.184C289.723 13.28 290.715 13.328 291.675 13.328C294.523 13.328 296.859 13.104 298.683 12.656V33.536ZM313.344 12.512C314.56 12.512 315.68 12.672 316.704 12.992C317.728 13.28 318.512 13.616 319.056 14C319.376 14.224 319.664 14.336 319.92 14.336C320.208 14.336 320.448 14.192 320.64 13.904C320.864 13.584 321.008 13.136 321.072 12.56H322.08C321.952 14.192 321.888 17.008 321.888 21.008H320.88C320.592 18.896 319.952 17.136 318.96 15.728C318 14.288 316.592 13.568 314.736 13.568C313.776 13.568 312.976 13.84 312.336 14.384C311.728 14.928 311.424 15.68 311.424 16.64C311.424 17.728 311.792 18.672 312.528 19.472C313.264 20.24 314.416 21.184 315.984 22.304L317.376 23.312C319.328 24.784 320.768 26.096 321.696 27.248C322.624 28.4 323.088 29.84 323.088 31.568C323.088 32.976 322.672 34.224 321.84 35.312C321.04 36.4 319.952 37.232 318.576 37.808C317.2 38.384 315.68 38.672 314.016 38.672C312.256 38.672 310.752 38.336 309.504 37.664C308.48 37.152 307.744 36.816 307.296 36.656C306.976 36.56 306.688 36.672 306.432 36.992C306.208 37.28 306.032 37.728 305.904 38.336H304.896C305.024 36.512 305.088 33.312 305.088 28.736H306.096C306.736 34.624 308.896 37.568 312.576 37.568C313.504 37.568 314.288 37.296 314.928 36.752C315.6 36.176 315.936 35.312 315.936 34.16C315.936 33.264 315.728 32.464 315.312 31.76C314.928 31.056 314.432 30.432 313.824 29.888C313.216 29.344 312.304 28.592 311.088 27.632C309.648 26.48 308.544 25.552 307.776 24.848C307.04 24.144 306.4 23.312 305.855 22.352C305.344 21.392 305.088 20.32 305.088 19.136C305.088 17.088 305.888 15.472 307.488 14.288C309.088 13.104 311.04 12.512 313.344 12.512ZM335.755 13.184H341.419V14.144H335.755V33.536C335.755 34.496 335.915 35.184 336.235 35.6C336.587 35.984 337.131 36.176 337.867 36.176C339.243 36.176 340.331 35.216 341.131 33.296L341.947 33.728C340.731 37.024 338.539 38.672 335.371 38.672C333.259 38.672 331.659 38.128 330.571 37.04C329.899 36.368 329.435 35.536 329.179 34.544C328.955 33.52 328.843 32.128 328.843 30.368V14.144H324.811V13.184H328.843V6.848C331.499 6.848 333.803 6.336 335.755 5.312V13.184ZM281.756 77.328C283.356 77.328 284.588 77.28 285.452 77.184V78.144C284.78 78.336 284.172 78.752 283.628 79.392C283.116 80 282.62 80.96 282.14 82.272L273.548 106.416C272.908 108.08 272.204 109.216 271.436 109.824C270.508 110.624 269.116 111.024 267.26 111.024C265.916 111.024 264.7 110.688 263.612 110.016C262.556 109.376 262.028 108.432 262.028 107.184C262.028 106.192 262.38 105.392 263.084 104.784C263.788 104.208 264.716 103.92 265.868 103.92C266.956 103.92 267.82 104.176 268.46 104.688C269.132 105.232 269.468 105.984 269.468 106.944C269.468 107.616 269.26 108.224 268.844 108.768C268.428 109.344 267.836 109.776 267.068 110.064C267.292 110.096 267.66 110.112 268.172 110.112C270.156 110.112 271.612 108.848 272.54 106.32L273.308 104.016L263.132 80.88C262.62 79.792 262.124 79.072 261.644 78.72C261.164 78.368 260.668 78.192 260.156 78.192V77.184C262.268 77.376 264.46 77.472 266.732 77.472C268.62 77.472 270.844 77.376 273.404 77.184V78.192C272.38 78.192 271.612 78.272 271.1 78.432C270.62 78.56 270.38 78.928 270.38 79.536C270.38 79.888 270.492 80.336 270.716 80.88L276.572 95.04L279.884 85.824C280.396 84.32 280.652 83.04 280.652 81.984C280.652 79.648 279.468 78.368 277.1 78.144V77.184C278.604 77.28 280.156 77.328 281.756 77.328ZM298.552 76.512C302.232 76.512 305.112 77.568 307.192 79.68C309.272 81.76 310.312 85.072 310.312 89.616C310.312 94.16 309.272 97.472 307.192 99.552C305.112 101.632 302.232 102.672 298.552 102.672C294.904 102.672 292.024 101.632 289.912 99.552C287.832 97.472 286.792 94.16 286.792 89.616C286.792 85.072 287.832 81.76 289.912 79.68C292.024 77.568 294.904 76.512 298.552 76.512ZM298.552 77.472C297.176 77.472 296.072 78.48 295.24 80.496C294.44 82.48 294.04 85.52 294.04 89.616C294.04 93.712 294.44 96.752 295.24 98.736C296.072 100.72 297.176 101.712 298.552 101.712C299.96 101.712 301.064 100.736 301.864 98.784C302.664 96.8 303.064 93.744 303.064 89.616C303.064 85.488 302.648 82.432 301.816 80.448C301.016 78.464 299.928 77.472 298.552 77.472ZM337.212 96.768C337.212 98.24 337.436 99.312 337.884 99.984C338.364 100.656 339.164 100.992 340.284 100.992V102C339.292 101.904 338.3 101.856 337.308 101.856C334.524 101.856 332.188 102.08 330.3 102.528V98.208C328.828 101.184 326.252 102.672 322.572 102.672C320.172 102.672 318.428 102.048 317.34 100.8C316.828 100.192 316.444 99.408 316.188 98.448C315.964 97.456 315.852 96.16 315.852 94.56V82.416C315.852 80.944 315.612 79.872 315.132 79.2C314.684 78.528 313.9 78.192 312.78 78.192V77.184C313.772 77.28 314.764 77.328 315.756 77.328C318.54 77.328 320.876 77.104 322.764 76.656V96.528C322.764 97.872 322.956 98.88 323.34 99.552C323.756 100.224 324.524 100.56 325.644 100.56C326.924 100.56 328.012 100.032 328.908 98.976C329.836 97.888 330.3 96.56 330.3 94.992V82.416C330.3 80.944 330.06 79.872 329.58 79.2C329.132 78.528 328.348 78.192 327.228 78.192V77.184C328.252 77.28 329.244 77.328 330.204 77.328C332.988 77.328 335.324 77.104 337.212 76.656V96.768ZM385.237 77.328C386.869 77.328 388.085 77.28 388.885 77.184V78.144C388.213 78.336 387.605 78.736 387.061 79.344C386.517 79.952 386.037 80.928 385.621 82.272L379.237 102.096C378.885 102.064 378.357 102.048 377.653 102.048C376.981 102.048 376.469 102.064 376.117 102.096L369.589 84.288L364.261 102.096C363.941 102.064 363.429 102.048 362.725 102.048C362.021 102.048 361.493 102.064 361.141 102.096L353.557 80.88C353.173 79.76 352.741 79.04 352.261 78.72C351.781 78.368 351.285 78.192 350.773 78.192V77.184C352.853 77.376 355.125 77.472 357.589 77.472C359.189 77.472 361.269 77.376 363.829 77.184V78.192C362.773 78.192 362.005 78.272 361.525 78.432C361.077 78.592 360.853 78.976 360.853 79.584C360.853 80 360.933 80.432 361.093 80.88L365.413 94.464L370.645 77.136L372.421 77.184L374.149 77.136L380.389 95.472L383.413 85.824C383.861 84.32 384.085 83.104 384.085 82.176C384.085 79.68 382.821 78.336 380.293 78.144V77.184C381.797 77.28 383.445 77.328 385.237 77.328ZM395.863 102.336C393.815 102.336 392.279 101.808 391.255 100.752C390.263 99.696 389.767 98.304 389.767 96.576C389.767 95.136 390.135 93.952 390.871 93.024C391.639 92.064 392.551 91.328 393.607 90.816C394.695 90.304 396.071 89.76 397.735 89.184C399.495 88.576 400.775 88.032 401.575 87.552C402.407 87.04 402.823 86.352 402.823 85.488V81.744C402.823 80.4 402.503 79.36 401.863 78.624C401.255 77.856 400.295 77.472 398.983 77.472C397.447 77.472 396.279 77.856 395.479 78.624C396.375 78.944 397.063 79.424 397.543 80.064C398.055 80.704 398.311 81.456 398.311 82.32C398.311 83.408 397.943 84.272 397.207 84.912C396.471 85.552 395.575 85.872 394.519 85.872C393.399 85.872 392.535 85.52 391.927 84.816C391.319 84.112 391.015 83.232 391.015 82.176C391.015 81.28 391.223 80.528 391.639 79.92C392.087 79.28 392.759 78.688 393.655 78.144C394.519 77.632 395.575 77.232 396.823 76.944C398.103 76.656 399.495 76.512 400.999 76.512C402.567 76.512 403.927 76.672 405.079 76.992C406.231 77.312 407.191 77.856 407.959 78.624C408.663 79.328 409.127 80.192 409.351 81.216C409.607 82.24 409.735 83.632 409.735 85.392V98.448C409.735 99.216 409.799 99.76 409.927 100.08C410.087 100.4 410.375 100.56 410.791 100.56C411.271 100.56 411.847 100.288 412.519 99.744L412.999 100.56C411.559 101.744 409.799 102.336 407.719 102.336C405.959 102.336 404.727 101.984 404.023 101.28C403.319 100.576 402.951 99.632 402.919 98.448C401.319 101.04 398.967 102.336 395.863 102.336ZM399.559 99.264C400.807 99.264 401.895 98.608 402.823 97.296V87.456C402.439 88.096 401.623 88.8 400.375 89.568C399.127 90.368 398.183 91.168 397.543 91.968C396.903 92.768 396.583 93.92 396.583 95.424C396.583 96.736 396.855 97.712 397.399 98.352C397.943 98.96 398.663 99.264 399.559 99.264ZM432.227 76.512C434.659 76.512 436.419 77.136 437.507 78.384C438.051 78.992 438.435 79.776 438.659 80.736C438.883 81.696 438.995 82.992 438.995 84.624V97.536C438.995 98.848 439.219 99.76 439.667 100.272C440.147 100.752 440.947 100.992 442.067 100.992V102C438.867 101.872 436.755 101.808 435.731 101.808C434.771 101.808 432.691 101.872 429.491 102V100.992C430.451 100.992 431.123 100.752 431.507 100.272C431.891 99.76 432.083 98.848 432.083 97.536V82.608C432.083 81.296 431.859 80.304 431.411 79.632C430.995 78.96 430.227 78.624 429.107 78.624C427.795 78.624 426.675 79.168 425.747 80.256C424.819 81.312 424.355 82.624 424.355 84.192V97.536C424.355 98.848 424.547 99.76 424.931 100.272C425.315 100.752 425.987 100.992 426.947 100.992V102C424.003 101.872 422.019 101.808 420.995 101.808C420.035 101.808 417.827 101.872 414.371 102V100.992C415.523 100.992 416.323 100.752 416.771 100.272C417.219 99.76 417.443 98.848 417.443 97.536V82.416C417.443 80.944 417.219 79.872 416.771 79.2C416.323 78.528 415.523 78.192 414.371 78.192V77.184C415.395 77.28 416.387 77.328 417.347 77.328C420.195 77.328 422.531 77.104 424.355 76.656V80.976C425.795 78 428.419 76.512 432.227 76.512ZM453.599 77.184H459.263V78.144H453.599V97.536C453.599 98.496 453.759 99.184 454.079 99.6C454.431 99.984 454.975 100.176 455.711 100.176C457.087 100.176 458.175 99.216 458.975 97.296L459.791 97.728C458.575 101.024 456.383 102.672 453.215 102.672C451.103 102.672 449.503 102.128 448.415 101.04C447.743 100.368 447.279 99.536 447.023 98.544C446.799 97.52 446.687 96.128 446.687 94.368V78.144H442.655V77.184H446.687V70.848C449.343 70.848 451.647 70.336 453.599 69.312V77.184Z" fill="black"/>
<path d="M25.768 96.72C25.768 98.192 25.992 99.264 26.44 99.936C26.888 100.608 27.688 100.944 28.84 100.944V101.952C27.848 101.856 26.856 101.808 25.864 101.808C23.016 101.808 20.68 102.032 18.856 102.48V98.352C17.768 101.232 15.688 102.672 12.616 102.672C9.608 102.672 7.208 101.584 5.416 99.408C3.656 97.2 2.792 93.888 2.824 89.472C2.824 86.656 3.272 84.288 4.168 82.368C5.096 80.416 6.36 78.96 7.96 78C9.592 77.008 11.448 76.512 13.528 76.512C15.864 76.512 17.64 77.12 18.856 78.336V70.176C18.856 68.704 18.616 67.632 18.136 66.96C17.688 66.288 16.904 65.952 15.784 65.952V64.944C16.808 65.04 17.8 65.088 18.76 65.088C21.544 65.088 23.88 64.864 25.768 64.416V96.72ZM14.584 100.608C15.64 100.608 16.568 100.224 17.368 99.456C18.2 98.688 18.696 97.648 18.856 96.336V79.536C18.056 78.448 16.888 77.904 15.352 77.904C13.656 77.904 12.344 78.88 11.416 80.832C10.488 82.784 10.04 85.696 10.072 89.568C10.04 93.472 10.408 96.288 11.176 98.016C11.976 99.744 13.112 100.608 14.584 100.608ZM44.9515 98.736C47.5755 98.736 49.6875 97.456 51.2875 94.896L52.1515 95.184C51.5115 97.264 50.3595 99.04 48.6955 100.512C47.0635 101.952 45.0155 102.672 42.5515 102.672C39.1595 102.672 36.4555 101.6 34.4395 99.456C32.4555 97.28 31.4635 94.08 31.4635 89.856C31.4635 85.536 32.5355 82.24 34.6795 79.968C36.8235 77.664 39.6715 76.512 43.2235 76.512C49.2395 76.512 52.2475 80.064 52.2475 87.168H38.7595C38.7275 87.648 38.7115 88.4 38.7115 89.424C38.7115 91.536 38.9995 93.296 39.5755 94.704C40.1835 96.112 40.9515 97.136 41.8795 97.776C42.8395 98.416 43.8635 98.736 44.9515 98.736ZM42.9355 77.52C41.7835 77.52 40.8235 78.24 40.0555 79.68C39.3195 81.088 38.8555 83.28 38.6635 86.256H46.1995C46.2635 83.728 46.0075 81.648 45.4315 80.016C44.8875 78.352 44.0555 77.52 42.9355 77.52ZM64.531 76.512C65.747 76.512 66.867 76.672 67.891 76.992C68.915 77.28 69.699 77.616 70.243 78C70.563 78.224 70.851 78.336 71.107 78.336C71.395 78.336 71.635 78.192 71.827 77.904C72.051 77.584 72.195 77.136 72.259 76.56H73.267C73.139 78.192 73.075 81.008 73.075 85.008H72.067C71.779 82.896 71.139 81.136 70.147 79.728C69.187 78.288 67.779 77.568 65.923 77.568C64.963 77.568 64.163 77.84 63.523 78.384C62.915 78.928 62.611 79.68 62.611 80.64C62.611 81.728 62.979 82.672 63.715 83.472C64.451 84.24 65.603 85.184 67.171 86.304L68.563 87.312C70.515 88.784 71.955 90.096 72.883 91.248C73.811 92.4 74.275 93.84 74.275 95.568C74.275 96.976 73.859 98.224 73.027 99.312C72.227 100.4 71.139 101.232 69.763 101.808C68.387 102.384 66.867 102.672 65.203 102.672C63.443 102.672 61.939 102.336 60.691 101.664C59.667 101.152 58.931 100.816 58.483 100.656C58.163 100.56 57.875 100.672 57.619 100.992C57.395 101.28 57.219 101.728 57.091 102.336H56.083C56.211 100.512 56.275 97.312 56.275 92.736H57.283C57.923 98.624 60.083 101.568 63.763 101.568C64.691 101.568 65.475 101.296 66.115 100.752C66.787 100.176 67.123 99.312 67.123 98.16C67.123 97.264 66.915 96.464 66.499 95.76C66.115 95.056 65.619 94.432 65.011 93.888C64.403 93.344 63.491 92.592 62.275 91.632C60.835 90.48 59.731 89.552 58.963 88.848C58.227 88.144 57.587 87.312 57.043 86.352C56.531 85.392 56.275 84.32 56.275 83.136C56.275 81.088 57.075 79.472 58.675 78.288C60.275 77.104 62.227 76.512 64.531 76.512ZM86.9429 77.184H92.6069V78.144H86.9429V97.536C86.9429 98.496 87.1029 99.184 87.4229 99.6C87.7749 99.984 88.3189 100.176 89.0549 100.176C90.4309 100.176 91.5189 99.216 92.3189 97.296L93.1349 97.728C91.9189 101.024 89.7269 102.672 86.5589 102.672C84.4469 102.672 82.8469 102.128 81.7589 101.04C81.0869 100.368 80.6229 99.536 80.3669 98.544C80.1429 97.52 80.0309 96.128 80.0309 94.368V78.144H75.9989V77.184H80.0309V70.848C82.6869 70.848 84.9909 70.336 86.9429 69.312V77.184ZM100.314 64.8C101.658 64.8 102.714 65.136 103.482 65.808C104.282 66.448 104.682 67.344 104.682 68.496C104.682 69.648 104.282 70.56 103.482 71.232C102.714 71.872 101.658 72.192 100.314 72.192C98.9699 72.192 97.8979 71.872 97.0979 71.232C96.3299 70.56 95.9459 69.648 95.9459 68.496C95.9459 67.344 96.3299 66.448 97.0979 65.808C97.8979 65.136 98.9699 64.8 100.314 64.8ZM104.058 97.536C104.058 98.848 104.282 99.76 104.73 100.272C105.21 100.752 106.01 100.992 107.13 100.992V102C103.93 101.872 101.802 101.808 100.746 101.808C99.7539 101.808 97.5299 101.872 94.0739 102V100.992C95.2259 100.992 96.0259 100.752 96.4739 100.272C96.9219 99.76 97.1459 98.848 97.1459 97.536V82.416C97.1459 80.944 96.9219 79.872 96.4739 79.2C96.0259 78.528 95.2259 78.192 94.0739 78.192V77.184C95.0979 77.28 96.0899 77.328 97.0499 77.328C99.8979 77.328 102.234 77.104 104.058 76.656V97.536ZM127.071 76.512C129.503 76.512 131.263 77.136 132.351 78.384C132.895 78.992 133.279 79.776 133.503 80.736C133.727 81.696 133.839 82.992 133.839 84.624V97.536C133.839 98.848 134.062 99.76 134.51 100.272C134.991 100.752 135.791 100.992 136.911 100.992V102C133.711 101.872 131.599 101.808 130.575 101.808C129.615 101.808 127.535 101.872 124.335 102V100.992C125.295 100.992 125.967 100.752 126.351 100.272C126.735 99.76 126.927 98.848 126.927 97.536V82.608C126.927 81.296 126.703 80.304 126.255 79.632C125.839 78.96 125.071 78.624 123.951 78.624C122.639 78.624 121.519 79.168 120.591 80.256C119.663 81.312 119.199 82.624 119.199 84.192V97.536C119.199 98.848 119.391 99.76 119.775 100.272C120.159 100.752 120.831 100.992 121.791 100.992V102C118.847 101.872 116.863 101.808 115.839 101.808C114.878 101.808 112.67 101.872 109.215 102V100.992C110.367 100.992 111.167 100.752 111.615 100.272C112.063 99.76 112.287 98.848 112.287 97.536V82.416C112.287 80.944 112.063 79.872 111.615 79.2C111.167 78.528 110.367 78.192 109.215 78.192V77.184C110.239 77.28 111.231 77.328 112.191 77.328C115.039 77.328 117.375 77.104 119.199 76.656V80.976C120.639 78 123.263 76.512 127.071 76.512ZM145.035 102.336C142.987 102.336 141.451 101.808 140.427 100.752C139.435 99.696 138.939 98.304 138.939 96.576C138.939 95.136 139.307 93.952 140.043 93.024C140.811 92.064 141.723 91.328 142.779 90.816C143.867 90.304 145.243 89.76 146.907 89.184C148.667 88.576 149.947 88.032 150.747 87.552C151.579 87.04 151.995 86.352 151.995 85.488V81.744C151.995 80.4 151.675 79.36 151.035 78.624C150.427 77.856 149.467 77.472 148.155 77.472C146.619 77.472 145.451 77.856 144.651 78.624C145.547 78.944 146.235 79.424 146.715 80.064C147.227 80.704 147.483 81.456 147.483 82.32C147.483 83.408 147.115 84.272 146.379 84.912C145.643 85.552 144.747 85.872 143.691 85.872C142.571 85.872 141.707 85.52 141.099 84.816C140.491 84.112 140.187 83.232 140.187 82.176C140.187 81.28 140.395 80.528 140.811 79.92C141.259 79.28 141.931 78.688 142.827 78.144C143.691 77.632 144.747 77.232 145.995 76.944C147.275 76.656 148.667 76.512 150.171 76.512C151.739 76.512 153.099 76.672 154.251 76.992C155.403 77.312 156.363 77.856 157.131 78.624C157.835 79.328 158.299 80.192 158.523 81.216C158.779 82.24 158.907 83.632 158.907 85.392V98.448C158.907 99.216 158.971 99.76 159.099 100.08C159.259 100.4 159.547 100.56 159.963 100.56C160.443 100.56 161.019 100.288 161.691 99.744L162.171 100.56C160.731 101.744 158.971 102.336 156.891 102.336C155.131 102.336 153.899 101.984 153.195 101.28C152.491 100.576 152.123 99.632 152.091 98.448C150.491 101.04 148.139 102.336 145.035 102.336ZM148.731 99.264C149.979 99.264 151.067 98.608 151.995 97.296V87.456C151.611 88.096 150.795 88.8 149.547 89.568C148.299 90.368 147.355 91.168 146.715 91.968C146.075 92.768 145.755 93.92 145.755 95.424C145.755 96.736 146.027 97.712 146.571 98.352C147.115 98.96 147.835 99.264 148.731 99.264ZM173.287 77.184H178.951V78.144H173.287V97.536C173.287 98.496 173.447 99.184 173.767 99.6C174.119 99.984 174.663 100.176 175.399 100.176C176.775 100.176 177.863 99.216 178.663 97.296L179.479 97.728C178.263 101.024 176.071 102.672 172.903 102.672C170.791 102.672 169.191 102.128 168.103 101.04C167.431 100.368 166.967 99.536 166.711 98.544C166.487 97.52 166.375 96.128 166.375 94.368V78.144H162.343V77.184H166.375V70.848C169.031 70.848 171.335 70.336 173.287 69.312V77.184ZM186.658 64.8C188.002 64.8 189.058 65.136 189.826 65.808C190.626 66.448 191.026 67.344 191.026 68.496C191.026 69.648 190.626 70.56 189.826 71.232C189.058 71.872 188.002 72.192 186.658 72.192C185.314 72.192 184.242 71.872 183.442 71.232C182.674 70.56 182.29 69.648 182.29 68.496C182.29 67.344 182.674 66.448 183.442 65.808C184.242 65.136 185.314 64.8 186.658 64.8ZM190.402 97.536C190.402 98.848 190.626 99.76 191.074 100.272C191.554 100.752 192.354 100.992 193.474 100.992V102C190.274 101.872 188.146 101.808 187.09 101.808C186.098 101.808 183.874 101.872 180.418 102V100.992C181.57 100.992 182.37 100.752 182.818 100.272C183.266 99.76 183.49 98.848 183.49 97.536V82.416C183.49 80.944 183.266 79.872 182.818 79.2C182.37 78.528 181.57 78.192 180.418 78.192V77.184C181.442 77.28 182.434 77.328 183.394 77.328C186.242 77.328 188.578 77.104 190.402 76.656V97.536ZM207.942 76.512C211.622 76.512 214.502 77.568 216.582 79.68C218.662 81.76 219.702 85.072 219.702 89.616C219.702 94.16 218.662 97.472 216.582 99.552C214.502 101.632 211.622 102.672 207.942 102.672C204.294 102.672 201.414 101.632 199.302 99.552C197.222 97.472 196.182 94.16 196.182 89.616C196.182 85.072 197.222 81.76 199.302 79.68C201.414 77.568 204.294 76.512 207.942 76.512ZM207.942 77.472C206.566 77.472 205.462 78.48 204.63 80.496C203.83 82.48 203.43 85.52 203.43 89.616C203.43 93.712 203.83 96.752 204.63 98.736C205.462 100.72 206.566 101.712 207.942 101.712C209.35 101.712 210.454 100.736 211.254 98.784C212.054 96.8 212.454 93.744 212.454 89.616C212.454 85.488 212.038 82.432 211.206 80.448C210.406 78.464 209.318 77.472 207.942 77.472ZM240.555 76.512C242.987 76.512 244.747 77.136 245.835 78.384C246.379 78.992 246.763 79.776 246.987 80.736C247.211 81.696 247.323 82.992 247.323 84.624V97.536C247.323 98.848 247.547 99.76 247.995 100.272C248.475 100.752 249.275 100.992 250.395 100.992V102C247.195 101.872 245.083 101.808 244.059 101.808C243.099 101.808 241.019 101.872 237.819 102V100.992C238.779 100.992 239.451 100.752 239.835 100.272C240.219 99.76 240.411 98.848 240.411 97.536V82.608C240.411 81.296 240.187 80.304 239.739 79.632C239.323 78.96 238.555 78.624 237.435 78.624C236.123 78.624 235.003 79.168 234.075 80.256C233.147 81.312 232.683 82.624 232.683 84.192V97.536C232.683 98.848 232.875 99.76 233.259 100.272C233.643 100.752 234.315 100.992 235.275 100.992V102C232.331 101.872 230.347 101.808 229.323 101.808C228.363 101.808 226.155 101.872 222.699 102V100.992C223.851 100.992 224.651 100.752 225.099 100.272C225.547 99.76 225.771 98.848 225.771 97.536V82.416C225.771 80.944 225.547 79.872 225.099 79.2C224.651 78.528 223.851 78.192 222.699 78.192V77.184C223.723 77.28 224.715 77.328 225.675 77.328C228.523 77.328 230.859 77.104 232.683 76.656V80.976C234.123 78 236.747 76.512 240.555 76.512Z" fill="#2C696F"/>
</svg>
